<svg xmlns="http://www.w3.org/2000/svg" width="29.077" height="31.5" viewBox="0 0 29.077 31.5">
  <path id="Icon_ionic-md-hand" data-name="Icon ionic-md-hand" d="M31.688,19.23a2.448,2.448,0,0,0-3.561-.092L25.2,22.068a1.445,1.445,0,0,1-2.219.13c-.356-.42-.215-1.714-.116-2.535L24.332,7.58A1.971,1.971,0,1,0,20.421,7.1L18.8,16.6c-.085.236-.266.277-.287-.041L17.961,4.219a1.97,1.97,0,0,0-3.94,0l-.039,12.428c.01.143-.113.184-.135.021l-1.752-9.7A2.013,2.013,0,0,0,9.806,5.317,2.031,2.031,0,0,0,8.218,7.666l1.56,11.352c0,.2-.066.317-.162.058L7.288,12.853A2,2,0,0,0,4.773,11.6a2.037,2.037,0,0,0-1.2,2.576L7.657,27.5c.021.074.044.147.067.219l.009.027,0,.006a8.682,8.682,0,0,0,8.256,5.994,11.748,11.748,0,0,0,6.986-2.368h0c2.109-1.269,8.864-8.532,8.864-8.532A2.519,2.519,0,0,0,31.688,19.23Z" transform="translate(-3.462 -2.25)"/>
</svg>
