<?xml version="1.0" encoding="UTF-8"?><svg id="a" xmlns="http://www.w3.org/2000/svg" viewBox="0 0 539.81 121.71"><defs><style>.b{fill:black;}</style></defs><g><path class="b" d="M8.51,19.26c4.25-.9,10.97-1.57,17.8-1.57,9.74,0,16.01,1.68,20.71,5.49,3.92,2.91,6.27,7.39,6.27,13.32,0,7.28-4.81,13.66-12.76,16.57v.22c7.17,1.79,15.56,7.73,15.56,18.92,0,6.49-2.58,11.42-6.38,15.12-5.26,4.81-13.77,7.05-26.09,7.05-6.72,0-11.87-.45-15.12-.9V19.26Zm9.74,30.9h8.85c10.3,0,16.35-5.37,16.35-12.65,0-8.85-6.72-12.32-16.57-12.32-4.48,0-7.05,.34-8.62,.67v24.3Zm0,36.17c1.9,.34,4.7,.45,8.17,.45,10.08,0,19.37-3.7,19.37-14.67,0-10.3-8.85-14.56-19.48-14.56h-8.06v28.78Z"/><path class="b" d="M68.86,56.44c0-6.38-.11-11.87-.45-16.91h8.62l.34,10.64h.45c2.46-7.28,8.4-11.87,15-11.87,1.12,0,1.9,.11,2.8,.34v9.29c-1.01-.22-2.02-.34-3.36-.34-6.94,0-11.87,5.26-13.21,12.65-.22,1.34-.45,2.91-.45,4.59v28.89h-9.74V56.44Z"/><path class="b" d="M134.93,93.72l-.78-6.83h-.34c-3.02,4.25-8.85,8.06-16.57,8.06-10.97,0-16.57-7.73-16.57-15.56,0-13.1,11.64-20.27,32.58-20.15v-1.12c0-4.48-1.23-12.54-12.32-12.54-5.04,0-10.3,1.57-14.11,4.03l-2.24-6.49c4.48-2.91,10.97-4.81,17.8-4.81,16.57,0,20.6,11.31,20.6,22.17v20.27c0,4.7,.22,9.29,.9,12.99h-8.96Zm-1.46-27.66c-10.75-.22-22.95,1.68-22.95,12.2,0,6.38,4.25,9.41,9.29,9.41,7.05,0,11.53-4.48,13.1-9.07,.34-1.01,.56-2.13,.56-3.14v-9.41Z"/><path class="b" d="M197.52,91.71c-2.58,1.34-8.29,3.14-15.56,3.14-16.35,0-26.98-11.08-26.98-27.66s11.42-28.78,29.11-28.78c5.82,0,10.97,1.46,13.66,2.8l-2.24,7.61c-2.35-1.34-6.05-2.58-11.42-2.58-12.43,0-19.15,9.18-19.15,20.49,0,12.54,8.06,20.27,18.81,20.27,5.6,0,9.29-1.46,12.09-2.69l1.68,7.39Z"/><path class="b" d="M218.79,64.39h.22c1.34-1.9,3.25-4.25,4.82-6.16l15.9-18.7h11.87l-20.94,22.28,23.85,31.91h-11.98l-18.7-25.98-5.04,5.6v20.38h-9.74V14.22h9.74v50.16Z"/><path class="b" d="M274.11,69.98l-7.84,23.74h-10.08l25.64-75.47h11.76l25.75,75.47h-10.41l-8.06-23.74h-26.76Zm24.75-7.61l-7.39-21.72c-1.68-4.93-2.8-9.41-3.92-13.77h-.22c-1.12,4.48-2.35,9.07-3.81,13.66l-7.39,21.83h22.73Z"/><path class="b" d="M329.76,57.22c0-6.94-.22-12.54-.45-17.69h8.85l.45,9.29h.22c4.03-6.61,10.41-10.53,19.26-10.53,13.1,0,22.95,11.08,22.95,27.54,0,19.48-11.87,29.11-24.63,29.11-7.17,0-13.44-3.13-16.68-8.51h-.22v29.45h-9.74V57.22Zm9.74,14.44c0,1.46,.22,2.8,.45,4.03,1.79,6.83,7.73,11.53,14.78,11.53,10.41,0,16.46-8.51,16.46-20.94,0-10.86-5.71-20.15-16.12-20.15-6.72,0-12.99,4.81-14.89,12.2-.34,1.23-.67,2.69-.67,4.03v9.29Z"/><path class="b" d="M393.47,57.22c0-6.94-.22-12.54-.45-17.69h8.85l.45,9.29h.22c4.03-6.61,10.41-10.53,19.26-10.53,13.1,0,22.95,11.08,22.95,27.54,0,19.48-11.87,29.11-24.63,29.11-7.17,0-13.44-3.13-16.68-8.51h-.22v29.45h-9.74V57.22Zm9.74,14.44c0,1.46,.22,2.8,.45,4.03,1.79,6.83,7.73,11.53,14.78,11.53,10.41,0,16.46-8.51,16.46-20.94,0-10.86-5.71-20.15-16.12-20.15-6.72,0-12.99,4.81-14.89,12.2-.34,1.23-.67,2.69-.67,4.03v9.29Z"/></g><rect class="b" x="473.44" y="27.19" width="28.55" height="4.94"/><rect class="b" x="473.44" y="45.42" width="28.55" height="4.94"/><rect class="b" x="487.94" y="36.3" width="23.16" height="4.94" transform="translate(460.75 538.3) rotate(-90)"/><rect class="b" x="501.2" y="36.3" width="22.35" height="4.94"/><rect class="b" x="473.44" y="71.63" width="28.55" height="4.94"/><rect class="b" x="473.44" y="89.85" width="28.55" height="4.94"/><rect class="b" x="487.94" y="80.74" width="23.16" height="4.94" transform="translate(416.31 582.73) rotate(-90)"/><rect class="b" x="501.2" y="80.74" width="22.35" height="4.94"/><rect class="b" x="496.79" y="58.92" width="48.58" height="4.94" transform="translate(459.69 582.48) rotate(-90)"/><rect class="b" x="521.08" y="58.92" width="18.73" height="4.94"/></svg>